<svg width="10" height="15" viewBox="0 0 10 15" fill="none" xmlns="http://www.w3.org/2000/svg">
<path d="M8.5 0.0608521H1.5C0.672848 0.0608521 0 0.688955 0 1.4611V13.5966C0 14.3687 0.672848 14.9968 1.5 14.9968H8.5C9.32715 14.9968 10 14.3687 10 13.5966V1.4611C10 0.688955 9.32715 0.0608521 8.5 0.0608521ZM1.5 0.99435H8.5C8.77588 0.99435 9 1.20357 9 1.4611V11.2628H1V1.4611C1 1.20357 1.22412 0.99435 1.5 0.99435ZM8.5 14.0633H1.5C1.22412 14.0633 1 13.8541 1 13.5966V12.1963H9V13.5966C9 13.8541 8.77588 14.0633 8.5 14.0633Z" fill="#757575"/>
</svg>
